G04 Layer_Physical_Order=1*
G04 Layer_Color=255*
%FSLAX25Y25*%
%MOIN*%
G70*
G01*
G75*
%ADD10R,0.29921X0.22441*%
%ADD11R,0.08661X0.03937*%
%ADD12R,0.05118X0.05906*%
%ADD13R,0.13300X0.05900*%
%ADD14R,0.05906X0.05118*%
%ADD15R,0.10000X0.05000*%
%ADD16O,0.10000X0.05000*%
%ADD17C,0.02500*%
%ADD18C,0.02000*%
%ADD19C,0.01500*%
%ADD20C,0.01000*%
%ADD21C,0.00800*%
%ADD22R,0.72000X1.08000*%
%ADD23C,0.07284*%
%ADD24R,0.05000X0.10000*%
%ADD25O,0.05000X0.10000*%
%ADD26C,0.07500*%
%ADD27R,0.05906X0.05906*%
%ADD28C,0.05906*%
%ADD29C,0.06000*%
%ADD30C,0.05000*%
%ADD31C,0.22500*%
D10*
X249552Y45895D02*
D03*
D11*
X272763Y55051D02*
D03*
Y45995D02*
D03*
Y36940D02*
D03*
D12*
X1692Y87995D02*
D03*
X-5788D02*
D03*
Y22995D02*
D03*
X1692D02*
D03*
X-5788Y57995D02*
D03*
X1692D02*
D03*
X-5788Y67995D02*
D03*
X1692D02*
D03*
X-5788Y77995D02*
D03*
X1692D02*
D03*
X21692Y87995D02*
D03*
X14212D02*
D03*
X21692Y77995D02*
D03*
X14212D02*
D03*
X21692Y67995D02*
D03*
X14212D02*
D03*
X21692Y57995D02*
D03*
X14212D02*
D03*
X24192Y22995D02*
D03*
X16712D02*
D03*
D13*
X352952Y-41605D02*
D03*
Y-22405D02*
D03*
D14*
X187952Y144236D02*
D03*
Y136755D02*
D03*
D15*
X330452Y30495D02*
D03*
X272952Y25995D02*
D03*
D16*
X330452Y50495D02*
D03*
X290452Y30495D02*
D03*
Y50495D02*
D03*
X272952Y35995D02*
D03*
Y45995D02*
D03*
Y55995D02*
D03*
D17*
X254952Y45995D02*
X272952D01*
D18*
X232952Y46094D02*
X251307D01*
X-3048Y15595D02*
X52952D01*
X56457Y36500D02*
X57952Y37995D01*
X275952Y28995D02*
Y35995D01*
X272763Y36940D02*
X280597D01*
X288952Y-7005D02*
Y-1952D01*
X272952Y14048D02*
X288952Y-1952D01*
X272952Y14048D02*
Y25995D01*
X297452Y52995D02*
Y133495D01*
Y28995D02*
Y52995D01*
Y-18505D02*
Y28995D01*
X198751Y46094D02*
X232952D01*
X57952Y20595D02*
Y37995D01*
X52952Y15595D02*
X57952Y20595D01*
X-5788Y18336D02*
X-3048Y15595D01*
X-5788Y18336D02*
Y22995D01*
Y57995D01*
Y67995D01*
Y77995D01*
Y87995D01*
X272952Y45995D02*
X278652D01*
X279652Y46995D01*
Y53495D01*
X281152Y54995D01*
X295452D01*
X297452Y52995D01*
X286952Y143995D02*
X297452Y133495D01*
X290452Y30495D02*
X295952D01*
X297452Y28995D01*
X288952Y-27005D02*
X297452Y-18505D01*
X228952Y42094D02*
X232952Y46094D01*
X228952Y27995D02*
Y42094D01*
X280597Y36940D02*
X282652Y38995D01*
Y48195D01*
X284952Y50495D01*
X290452D01*
X272952Y35995D02*
X275952D01*
X272952Y25995D02*
X275952Y28995D01*
X330452Y-17005D02*
Y30495D01*
Y-17005D02*
X335852Y-22405D01*
X352952D01*
X312952Y-32005D02*
Y46495D01*
X316952Y50495D01*
X330452D01*
X327952Y-32005D02*
X337552Y-41605D01*
X352952D01*
X187952Y144236D02*
X199752D01*
X199992Y143995D01*
X211952D01*
D19*
X277652Y55995D02*
Y79395D01*
X109402Y-155D02*
X111052Y-1805D01*
X68902Y-155D02*
X109402D01*
X63252Y-5805D02*
X68902Y-155D01*
X63252Y-5805D02*
Y43895D01*
X24192Y22995D02*
X42752D01*
X77952Y37995D02*
Y95595D01*
X72952Y100595D02*
X77952Y95595D01*
X44952Y46195D02*
X60952D01*
X42952Y48195D02*
X44952Y46195D01*
X42952Y48195D02*
Y55995D01*
X60952Y46195D02*
X63252Y43895D01*
X112952Y49095D02*
Y55495D01*
X110952Y47095D02*
X112952Y49095D01*
X87752Y47095D02*
X110952D01*
X272952Y55240D02*
Y55995D01*
X272763Y55051D02*
X272952Y55240D01*
Y55995D02*
X277652D01*
X220292Y136755D02*
X277652Y79395D01*
X187952Y136755D02*
X220292D01*
D20*
X112952Y85495D02*
Y109048D01*
X110500Y111500D02*
X112952Y109048D01*
X107448Y111500D02*
X110500D01*
X74952Y143995D02*
X107448Y111500D01*
X203952Y98452D02*
Y112495D01*
X194195Y88695D02*
X203952Y98452D01*
X184252Y88695D02*
X194195D01*
X122500Y150500D02*
X126248D01*
X137952Y138795D01*
X116452Y155495D02*
X157452D01*
X104952Y143995D02*
X116452Y155495D01*
X157452D02*
X201952Y110995D01*
X162952Y90995D02*
X192452D01*
X137952Y123795D02*
Y138795D01*
Y37995D02*
Y123795D01*
X21692Y87995D02*
Y90995D01*
X20192Y92495D02*
X21692Y90995D01*
X-9848Y92495D02*
X20192D01*
X-9848Y14995D02*
Y92495D01*
Y14995D02*
X-7648Y12795D01*
X12752D01*
X35352Y-9805D01*
X65552D01*
X72952Y-2405D01*
X76952D01*
X82752Y-8205D01*
Y-34605D02*
Y-8205D01*
X272763Y36184D02*
Y36940D01*
Y36184D02*
X272952Y35995D01*
X136052Y8695D02*
X153952Y26595D01*
Y58395D01*
X184252Y88695D01*
X183452Y132995D02*
X203952Y112495D01*
X183452Y132995D02*
Y148295D01*
X184952Y149795D01*
X221152D01*
X226952Y143995D01*
X1692Y87995D02*
X14212D01*
X1692Y77995D02*
X14212D01*
X1692Y67995D02*
X14212D01*
X1692Y57995D02*
X14212D01*
X1692Y22995D02*
X16712D01*
X201952Y100495D02*
Y110995D01*
X192452Y90995D02*
X201952Y100495D01*
X162952Y85495D02*
Y90995D01*
X89952Y143995D02*
X132952Y100995D01*
Y85495D02*
Y100995D01*
X59952Y143995D02*
X92952Y110995D01*
Y85995D02*
Y110995D01*
X44952Y143995D02*
X62952Y125995D01*
Y85995D02*
Y125995D01*
X29952Y143995D02*
X42952Y130995D01*
Y85995D02*
Y130995D01*
X127952Y-42005D02*
Y18495D01*
X141952Y32495D01*
Y101595D01*
X160352Y119995D01*
X189952D01*
X192952Y116995D01*
Y112995D02*
Y116995D01*
X185452Y105495D02*
X192952Y112995D01*
X137952Y-42005D02*
Y-18705D01*
X130052Y-10805D02*
X137952Y-18705D01*
X130052Y-10805D02*
Y15595D01*
X143952Y29495D01*
Y92995D01*
X160952Y109995D01*
X170952D01*
X175452Y105495D01*
X147952Y-42005D02*
Y-17905D01*
X132052Y-2005D02*
X147952Y-17905D01*
X132052Y-2005D02*
Y10595D01*
X151952Y30495D01*
Y91995D01*
X165452Y105495D01*
X167952Y37995D02*
Y66195D01*
X127952Y37995D02*
Y60895D01*
X108952Y79895D02*
X127952Y60895D01*
X108952Y79895D02*
Y106495D01*
X21692Y77995D02*
X24752D01*
X25752Y78995D01*
Y135395D01*
X24752Y136395D02*
X25752Y135395D01*
X24752Y136395D02*
Y146995D01*
X28852Y151095D01*
X75452D01*
X118452Y108095D01*
Y75969D02*
Y108095D01*
Y75969D02*
X132752Y61669D01*
Y26195D02*
Y61669D01*
X119052Y12495D02*
X132752Y26195D01*
X119052Y-8705D02*
Y12495D01*
X107952Y-19805D02*
X119052Y-8705D01*
X107952Y-42005D02*
Y-19805D01*
X21692Y67995D02*
X54052D01*
X68952Y82895D01*
Y102695D01*
X70952Y104695D01*
X77352D01*
X88952Y93095D01*
Y77345D02*
Y93095D01*
Y77345D02*
X92952Y73345D01*
X111402D01*
X122952Y61795D01*
Y24895D02*
Y61795D01*
X117052Y18995D02*
X122952Y24895D01*
X117052Y-7805D02*
Y18995D01*
X97952Y-26905D02*
X117052Y-7805D01*
X97952Y-42005D02*
Y-26905D01*
X21692Y57995D02*
X33952D01*
X38952Y62995D01*
X55352D01*
X72952Y45395D01*
Y30195D02*
Y45395D01*
Y30195D02*
X76952Y26195D01*
X96852D01*
X115052Y7995D01*
Y-6805D02*
Y7995D01*
X87952Y-33905D02*
X115052Y-6805D01*
X87952Y-42005D02*
Y-33905D01*
X67952Y-42005D02*
Y-13305D01*
X74852Y-6405D01*
D21*
X4952Y144994D02*
X8285D01*
X6618D01*
Y139995D01*
X12450Y144994D02*
X10784D01*
X9951Y144161D01*
Y140829D01*
X10784Y139995D01*
X12450D01*
X13283Y140829D01*
Y144161D01*
X12450Y144994D01*
X14949Y139995D02*
Y144994D01*
X17448D01*
X18281Y144161D01*
Y142495D01*
X17448Y141662D01*
X14949D01*
D22*
X228952Y9995D02*
D03*
D23*
X241952Y143995D02*
D03*
X226952D02*
D03*
X211952D02*
D03*
X301952D02*
D03*
X286952D02*
D03*
X271952D02*
D03*
X256952D02*
D03*
X316952D02*
D03*
X312952Y-32005D02*
D03*
X327952D02*
D03*
X104952Y143995D02*
D03*
X44952D02*
D03*
X59952D02*
D03*
X74952D02*
D03*
X89952D02*
D03*
X29952D02*
D03*
D24*
X112952Y55495D02*
D03*
X42952Y55995D02*
D03*
X57952Y-42005D02*
D03*
D25*
X132952Y85495D02*
D03*
X162952Y55495D02*
D03*
X112952Y85495D02*
D03*
X162952D02*
D03*
X62952Y85995D02*
D03*
X92952Y55995D02*
D03*
X42952Y85995D02*
D03*
X92952D02*
D03*
X177952Y37995D02*
D03*
X167952D02*
D03*
X157952D02*
D03*
X147952D02*
D03*
X137952D02*
D03*
X127952D02*
D03*
X117952D02*
D03*
X107952D02*
D03*
X97952D02*
D03*
X87952D02*
D03*
X77952D02*
D03*
X67952D02*
D03*
X57952D02*
D03*
X177952Y-42005D02*
D03*
X167952D02*
D03*
X157952D02*
D03*
X147952D02*
D03*
X137952D02*
D03*
X127952D02*
D03*
X117952D02*
D03*
X107952D02*
D03*
X97952D02*
D03*
X87952D02*
D03*
X77952D02*
D03*
X67952D02*
D03*
D26*
X288952Y-27005D02*
D03*
Y-7005D02*
D03*
D27*
X185452Y115495D02*
D03*
D28*
Y105495D02*
D03*
X175452Y115495D02*
D03*
Y105495D02*
D03*
X165452Y115495D02*
D03*
Y105495D02*
D03*
D29*
X240000Y39393D02*
D03*
D30*
X23000Y15500D02*
D03*
X122500Y150500D02*
D03*
X82752Y-34605D02*
D03*
X42752Y22995D02*
D03*
X72952Y100595D02*
D03*
X63252Y-5805D02*
D03*
X111052Y-1805D02*
D03*
X87752Y47095D02*
D03*
X136052Y8695D02*
D03*
X167952Y66195D02*
D03*
X137952Y123795D02*
D03*
X108952Y106495D02*
D03*
X74852Y-6405D02*
D03*
D31*
X0Y110205D02*
D03*
Y0D02*
D03*
X373775D02*
D03*
Y110205D02*
D03*
M02*
