G04 Layer_Color=8388736*
%FSLAX25Y25*%
%MOIN*%
G70*
G01*
G75*
%ADD49R,0.30721X0.23241*%
%ADD50R,0.09461X0.04737*%
%ADD51R,0.05918X0.06706*%
%ADD52R,0.14100X0.06700*%
%ADD53R,0.06706X0.05918*%
%ADD54R,0.10800X0.05800*%
%ADD55O,0.10800X0.05800*%
%ADD56C,0.08083*%
%ADD57R,0.05800X0.10800*%
%ADD58O,0.05800X0.10800*%
%ADD59C,0.08300*%
%ADD60R,0.06706X0.06706*%
%ADD61C,0.06706*%
%ADD62C,0.06800*%
%ADD63C,0.05800*%
%ADD64C,0.23300*%
D49*
X249552Y45895D02*
D03*
D50*
X272763Y55051D02*
D03*
Y45995D02*
D03*
Y36940D02*
D03*
D51*
X1692Y87995D02*
D03*
X-5788D02*
D03*
Y22995D02*
D03*
X1692D02*
D03*
X-5788Y57995D02*
D03*
X1692D02*
D03*
X-5788Y67995D02*
D03*
X1692D02*
D03*
X-5788Y77995D02*
D03*
X1692D02*
D03*
X21692Y87995D02*
D03*
X14212D02*
D03*
X21692Y77995D02*
D03*
X14212D02*
D03*
X21692Y67995D02*
D03*
X14212D02*
D03*
X21692Y57995D02*
D03*
X14212D02*
D03*
X24192Y22995D02*
D03*
X16712D02*
D03*
D52*
X352952Y-41605D02*
D03*
Y-22405D02*
D03*
D53*
X187952Y144236D02*
D03*
Y136755D02*
D03*
D54*
X330452Y30495D02*
D03*
X272952Y25995D02*
D03*
D55*
X330452Y50495D02*
D03*
X290452Y30495D02*
D03*
Y50495D02*
D03*
X272952Y35995D02*
D03*
Y45995D02*
D03*
Y55995D02*
D03*
D56*
X241952Y143995D02*
D03*
X226952D02*
D03*
X211952D02*
D03*
X301952D02*
D03*
X286952D02*
D03*
X271952D02*
D03*
X256952D02*
D03*
X316952D02*
D03*
X312952Y-32005D02*
D03*
X327952D02*
D03*
X104952Y143995D02*
D03*
X44952D02*
D03*
X59952D02*
D03*
X74952D02*
D03*
X89952D02*
D03*
X29952D02*
D03*
D57*
X112952Y55495D02*
D03*
X42952Y55995D02*
D03*
X57952Y-42005D02*
D03*
D58*
X132952Y85495D02*
D03*
X162952Y55495D02*
D03*
X112952Y85495D02*
D03*
X162952D02*
D03*
X62952Y85995D02*
D03*
X92952Y55995D02*
D03*
X42952Y85995D02*
D03*
X92952D02*
D03*
X177952Y37995D02*
D03*
X167952D02*
D03*
X157952D02*
D03*
X147952D02*
D03*
X137952D02*
D03*
X127952D02*
D03*
X117952D02*
D03*
X107952D02*
D03*
X97952D02*
D03*
X87952D02*
D03*
X77952D02*
D03*
X67952D02*
D03*
X57952D02*
D03*
X177952Y-42005D02*
D03*
X167952D02*
D03*
X157952D02*
D03*
X147952D02*
D03*
X137952D02*
D03*
X127952D02*
D03*
X117952D02*
D03*
X107952D02*
D03*
X97952D02*
D03*
X87952D02*
D03*
X77952D02*
D03*
X67952D02*
D03*
D59*
X288952Y-27005D02*
D03*
Y-7005D02*
D03*
D60*
X185452Y115495D02*
D03*
D61*
Y105495D02*
D03*
X175452Y115495D02*
D03*
Y105495D02*
D03*
X165452Y115495D02*
D03*
Y105495D02*
D03*
D62*
X240000Y39393D02*
D03*
D63*
X23000Y15500D02*
D03*
X122500Y150500D02*
D03*
X82752Y-34605D02*
D03*
X42752Y22995D02*
D03*
X72952Y100595D02*
D03*
X63252Y-5805D02*
D03*
X111052Y-1805D02*
D03*
X87752Y47095D02*
D03*
X136052Y8695D02*
D03*
X167952Y66195D02*
D03*
X137952Y123795D02*
D03*
X108952Y106495D02*
D03*
X74852Y-6405D02*
D03*
D64*
X0Y110205D02*
D03*
Y0D02*
D03*
X373775D02*
D03*
Y110205D02*
D03*
M02*
