G04 Layer_Color=65535*
%FSLAX25Y25*%
%MOIN*%
G70*
G01*
G75*
%ADD20C,0.01000*%
%ADD44C,0.00984*%
%ADD45C,0.00500*%
%ADD46C,0.00787*%
%ADD47C,0.00600*%
%ADD48C,0.00700*%
D20*
X107952Y67995D02*
G03*
X107952Y72995I0J2500D01*
G01*
X37952Y68495D02*
G03*
X37952Y73495I0J2500D01*
G01*
X52952Y-4505D02*
G03*
X52952Y495I0J2500D01*
G01*
X204758Y157495D02*
X322897D01*
X204758Y128295D02*
Y157495D01*
X107952Y47995D02*
Y67495D01*
Y72995D02*
Y92995D01*
X122952D02*
X152952D01*
X167952Y48495D02*
Y92995D01*
X122952Y47995D02*
X152952D01*
X167952D01*
X107952D02*
X122952D01*
X152952Y92995D02*
X167952D01*
X107952D02*
X122952D01*
X37952Y48495D02*
Y67995D01*
Y73495D02*
Y93495D01*
X52952D02*
X82952D01*
X97952Y48995D02*
Y93495D01*
X52952Y48495D02*
X82952D01*
X97952D01*
X37952D02*
X52952D01*
X82952Y93495D02*
X97952D01*
X37952D02*
X52952D01*
X255452Y20995D02*
X279452D01*
X229452D02*
X255452D01*
X229452Y30995D02*
Y50995D01*
Y60995D02*
X279452D01*
Y20995D02*
Y60995D01*
X229452Y50995D02*
Y60995D01*
Y20995D02*
Y30995D01*
X288952Y1495D02*
Y5495D01*
X286952Y3495D02*
X290952D01*
X206452Y-43005D02*
Y7995D01*
X271452D01*
Y-43005D02*
Y7995D01*
X206452Y-43005D02*
X271452D01*
X353952Y-18005D02*
X360952D01*
Y-46005D02*
Y-18005D01*
X344952Y-46005D02*
X360952D01*
X344952D02*
Y-18005D01*
X353952D01*
X52952Y-33505D02*
X182952D01*
Y29495D01*
X52952D02*
X182952D01*
X52952Y495D02*
Y29495D01*
Y-33505D02*
Y-4505D01*
X315452Y23495D02*
X321952D01*
X298952D02*
X314952D01*
X298952D02*
Y57495D01*
X321952D01*
Y23995D02*
Y57495D01*
X288952Y24995D02*
X291952D01*
X290452Y54995D02*
Y57995D01*
X288952Y56495D02*
X291952D01*
X333952Y-45505D02*
Y-16305D01*
X307007Y-45505D02*
X333952D01*
X23452Y128295D02*
Y157495D01*
X110897D01*
X252952Y91994D02*
Y86995D01*
X256284D01*
X258784Y90328D02*
X260450D01*
X261283Y89495D01*
Y86995D01*
X258784D01*
X257951Y87828D01*
X258784Y88661D01*
X261283D01*
X263782Y86995D02*
Y91161D01*
Y89495D01*
X262949D01*
X264615D01*
X263782D01*
Y91161D01*
X264615Y91994D01*
X267114Y86995D02*
X268780D01*
X267947D01*
Y91994D01*
X267114D01*
X273779Y86995D02*
X272113D01*
X271280Y87828D01*
Y89495D01*
X272113Y90328D01*
X273779D01*
X274612Y89495D01*
Y88661D01*
X271280D01*
X276278Y90328D02*
Y87828D01*
X277111Y86995D01*
X279610D01*
Y90328D01*
X281276D02*
Y86995D01*
Y88661D01*
X282109Y89495D01*
X282943Y90328D01*
X283776D01*
X291273Y91994D02*
Y86995D01*
X293772D01*
X294605Y87828D01*
Y91161D01*
X293772Y91994D01*
X291273D01*
X298771Y86995D02*
X297105D01*
X296271Y87828D01*
Y89495D01*
X297105Y90328D01*
X298771D01*
X299604Y89495D01*
Y88661D01*
X296271D01*
X301270Y86995D02*
X303769D01*
X304602Y87828D01*
X303769Y88661D01*
X302103D01*
X301270Y89495D01*
X302103Y90328D01*
X304602D01*
X306268Y86995D02*
X307934D01*
X307101D01*
Y90328D01*
X306268D01*
X312100Y85329D02*
X312933D01*
X313766Y86162D01*
Y90328D01*
X311267D01*
X310434Y89495D01*
Y87828D01*
X311267Y86995D01*
X313766D01*
X315432D02*
Y90328D01*
X317931D01*
X318764Y89495D01*
Y86995D01*
X320430D02*
X322930D01*
X323763Y87828D01*
X322930Y88661D01*
X321263D01*
X320430Y89495D01*
X321263Y90328D01*
X323763D01*
X328951Y131993D02*
X326952D01*
X327951D01*
Y126995D01*
X326952Y125995D01*
X325952D01*
X324952Y126995D01*
X334949Y125995D02*
X330950D01*
X334949Y129994D01*
Y130994D01*
X333949Y131993D01*
X331950D01*
X330950Y130994D01*
X299451Y-16006D02*
X297451D01*
X298451D01*
Y-21005D01*
X297451Y-22005D01*
X296452D01*
X295452Y-21005D01*
X301450Y-22005D02*
X303450D01*
X302450D01*
Y-16006D01*
X301450Y-17006D01*
X116999Y133498D02*
X114999D01*
X115999D01*
Y128500D01*
X114999Y127500D01*
X114000D01*
X113000Y128500D01*
X118998Y132498D02*
X119998Y133498D01*
X121997D01*
X122997Y132498D01*
Y131499D01*
X121997Y130499D01*
X120997D01*
X121997D01*
X122997Y129499D01*
Y128500D01*
X121997Y127500D01*
X119998D01*
X118998Y128500D01*
X320952Y97995D02*
X316953D01*
X314954Y99995D01*
X316953Y101994D01*
X320952D01*
X317953D01*
Y97995D01*
X314954Y103993D02*
Y105993D01*
Y104993D01*
X320952D01*
Y103993D01*
Y105993D01*
Y108992D02*
X314954D01*
X320952Y112991D01*
X314954D01*
X317953Y114990D02*
Y118989D01*
X315954Y120988D02*
X314954Y121988D01*
Y123987D01*
X315954Y124987D01*
X319953D01*
X320952Y123987D01*
Y121988D01*
X319953Y120988D01*
X315954D01*
X301953Y107995D02*
Y111994D01*
X299954Y109995D02*
X303953D01*
X298954Y117992D02*
Y113994D01*
X301953D01*
X300954Y115993D01*
Y116992D01*
X301953Y117992D01*
X303953D01*
X304952Y116992D01*
Y114993D01*
X303953Y113994D01*
X298954Y119992D02*
X302953D01*
X304952Y121991D01*
X302953Y123990D01*
X298954D01*
X328501Y-498D02*
X330501Y502D01*
X332500Y2501D01*
Y4500D01*
X331500Y5500D01*
X329501D01*
X328501Y4500D01*
Y3501D01*
X329501Y2501D01*
X332500D01*
X326502D02*
X322503D01*
X316505Y5500D02*
X320504D01*
X316505Y1501D01*
Y502D01*
X317505Y-498D01*
X319504D01*
X320504Y502D01*
X311507Y5500D02*
Y-498D01*
X314506Y2501D01*
X310507D01*
X308508Y-498D02*
Y3501D01*
X306508Y5500D01*
X304509Y3501D01*
Y-498D01*
X252952Y67995D02*
Y72994D01*
X255451D01*
X256284Y72161D01*
Y70495D01*
X255451Y69661D01*
X252952D01*
X254618D02*
X256284Y67995D01*
X260450D02*
X258784D01*
X257951Y68828D01*
Y70495D01*
X258784Y71328D01*
X260450D01*
X261283Y70495D01*
Y69661D01*
X257951D01*
X262949Y71328D02*
X264615Y67995D01*
X266281Y71328D01*
X267947Y72161D02*
X268780Y72994D01*
X270446D01*
X271280Y72161D01*
Y71328D01*
X270446Y70495D01*
X269614D01*
X270446D01*
X271280Y69661D01*
Y68828D01*
X270446Y67995D01*
X268780D01*
X267947Y68828D01*
X256284Y82161D02*
X255451Y82994D01*
X253785D01*
X252952Y82161D01*
Y81328D01*
X253785Y80495D01*
X255451D01*
X256284Y79662D01*
Y78829D01*
X255451Y77995D01*
X253785D01*
X252952Y78829D01*
X260450Y77995D02*
X258784D01*
X257951Y78829D01*
Y80495D01*
X258784Y81328D01*
X260450D01*
X261283Y80495D01*
Y79662D01*
X257951D01*
X262949Y77995D02*
Y81328D01*
X265448D01*
X266281Y80495D01*
Y77995D01*
X267947D02*
X270446D01*
X271280Y78829D01*
X270446Y79662D01*
X268780D01*
X267947Y80495D01*
X268780Y81328D01*
X271280D01*
X273779Y77995D02*
X275445D01*
X276278Y78829D01*
Y80495D01*
X275445Y81328D01*
X273779D01*
X272946Y80495D01*
Y78829D01*
X273779Y77995D01*
X277944Y81328D02*
Y77995D01*
Y79662D01*
X278777Y80495D01*
X279610Y81328D01*
X280443D01*
X287941Y77995D02*
X289607D01*
X288774D01*
Y82994D01*
X287941Y82161D01*
X239954Y111994D02*
X238954Y110994D01*
Y108995D01*
X239954Y107995D01*
X243952D01*
X244952Y108995D01*
Y110994D01*
X243952Y111994D01*
X241953D01*
Y109995D01*
X244952Y113994D02*
X238954D01*
X244952Y117992D01*
X238954D01*
Y119992D02*
X244952D01*
Y122991D01*
X243952Y123990D01*
X239954D01*
X238954Y122991D01*
Y119992D01*
X211953Y107995D02*
Y111994D01*
X209954Y109995D02*
X213952D01*
X208954Y117992D02*
Y113994D01*
X211953D01*
X210953Y115993D01*
Y116992D01*
X211953Y117992D01*
X213952D01*
X214952Y116992D01*
Y114993D01*
X213952Y113994D01*
X208954Y119992D02*
X212953D01*
X214952Y121991D01*
X212953Y123990D01*
X208954D01*
X258952Y99995D02*
X254954D01*
X252954Y101995D01*
X254954Y103994D01*
X258952D01*
X255953D01*
Y99995D01*
X252954Y105993D02*
Y107993D01*
Y106993D01*
X258952D01*
Y105993D01*
Y107993D01*
Y110992D02*
X252954D01*
X258952Y114991D01*
X252954D01*
X255953Y116990D02*
Y120989D01*
X258952Y122988D02*
Y124987D01*
Y123988D01*
X252954D01*
X253954Y122988D01*
X274952Y97995D02*
X270953D01*
X268954Y99995D01*
X270953Y101994D01*
X274952D01*
X271953D01*
Y97995D01*
X268954Y103993D02*
Y105993D01*
Y104993D01*
X274952D01*
Y103993D01*
Y105993D01*
Y108992D02*
X268954D01*
X274952Y112991D01*
X268954D01*
X271953Y114990D02*
Y118989D01*
X274952Y124987D02*
Y120988D01*
X270953Y124987D01*
X269954D01*
X268954Y123987D01*
Y121988D01*
X269954Y120988D01*
X228952Y97995D02*
X222954D01*
Y100994D01*
X223954Y101994D01*
X225953D01*
X226953Y100994D01*
Y97995D01*
X224954Y103993D02*
X227953D01*
X228952Y104993D01*
Y107992D01*
X224954D01*
X228952Y109992D02*
Y111991D01*
Y110991D01*
X222954D01*
Y109992D01*
X228952Y114990D02*
Y117989D01*
X227953Y118989D01*
X226953Y117989D01*
Y115990D01*
X225953Y114990D01*
X224954Y115990D01*
Y118989D01*
X228952Y123987D02*
Y121988D01*
X227953Y120988D01*
X225953D01*
X224954Y121988D01*
Y123987D01*
X225953Y124987D01*
X226953D01*
Y120988D01*
X285954Y111994D02*
X284954Y110994D01*
Y108995D01*
X285954Y107995D01*
X289952D01*
X290952Y108995D01*
Y110994D01*
X289952Y111994D01*
X287953D01*
Y109995D01*
X290952Y113994D02*
X284954D01*
X290952Y117992D01*
X284954D01*
Y119992D02*
X290952D01*
Y122991D01*
X289952Y123990D01*
X285954D01*
X284954Y122991D01*
Y119992D01*
X24952Y107995D02*
Y113994D01*
X27951D01*
X28951Y112994D01*
Y110994D01*
X27951Y109995D01*
X24952D01*
X26952D02*
X28951Y107995D01*
X33949D02*
X31950D01*
X30950Y108995D01*
Y110994D01*
X31950Y111994D01*
X33949D01*
X34949Y110994D01*
Y109995D01*
X30950D01*
X36948Y107995D02*
X38948D01*
X37948D01*
Y113994D01*
X36948D01*
X42946Y111994D02*
X44946D01*
X45945Y110994D01*
Y107995D01*
X42946D01*
X41947Y108995D01*
X42946Y109995D01*
X45945D01*
X47945Y111994D02*
Y108995D01*
X48944Y107995D01*
X51943D01*
Y106996D01*
X50944Y105996D01*
X49944D01*
X51943Y107995D02*
Y111994D01*
X63940Y107995D02*
X59941D01*
X63940Y111994D01*
Y112994D01*
X62940Y113994D01*
X60941D01*
X59941Y112994D01*
X70452Y107995D02*
Y113994D01*
X73451D01*
X74451Y112994D01*
Y110994D01*
X73451Y109995D01*
X70452D01*
X72452D02*
X74451Y107995D01*
X79449D02*
X77450D01*
X76450Y108995D01*
Y110994D01*
X77450Y111994D01*
X79449D01*
X80449Y110994D01*
Y109995D01*
X76450D01*
X82448Y107995D02*
X84448D01*
X83448D01*
Y113994D01*
X82448D01*
X88446Y111994D02*
X90446D01*
X91445Y110994D01*
Y107995D01*
X88446D01*
X87447Y108995D01*
X88446Y109995D01*
X91445D01*
X93445Y111994D02*
Y108995D01*
X94444Y107995D01*
X97443D01*
Y106996D01*
X96444Y105996D01*
X95444D01*
X97443Y107995D02*
Y111994D01*
X105441Y107995D02*
X107440D01*
X106441D01*
Y113994D01*
X105441Y112994D01*
X62951Y122994D02*
X61951Y123994D01*
X59952D01*
X58952Y122994D01*
Y118995D01*
X59952Y117995D01*
X61951D01*
X62951Y118995D01*
X40952Y117995D02*
Y123994D01*
X44951Y117995D01*
Y123994D01*
X50949Y122994D02*
X49949Y123994D01*
X47950D01*
X46950Y122994D01*
Y118995D01*
X47950Y117995D01*
X49949D01*
X50949Y118995D01*
X24952Y117995D02*
Y123994D01*
X28951Y117995D01*
Y123994D01*
X33949D02*
X31950D01*
X30950Y122994D01*
Y118995D01*
X31950Y117995D01*
X33949D01*
X34949Y118995D01*
Y122994D01*
X33949Y123994D01*
X108951Y122994D02*
X107951Y123994D01*
X105952D01*
X104952Y122994D01*
Y118995D01*
X105952Y117995D01*
X107951D01*
X108951Y118995D01*
X86952Y117995D02*
Y123994D01*
X90951Y117995D01*
Y123994D01*
X96949Y122994D02*
X95949Y123994D01*
X93950D01*
X92950Y122994D01*
Y118995D01*
X93950Y117995D01*
X95949D01*
X96949Y118995D01*
X70952Y117995D02*
Y123994D01*
X74951Y117995D01*
Y123994D01*
X79949D02*
X77950D01*
X76950Y122994D01*
Y118995D01*
X77950Y117995D01*
X79949D01*
X80949Y118995D01*
Y122994D01*
X79949Y123994D01*
X333500Y-5000D02*
Y-8999D01*
X331501Y-10998D01*
X329501Y-8999D01*
Y-5000D01*
Y-7999D01*
X333500D01*
X323503Y-9998D02*
X324503Y-10998D01*
X326502D01*
X327502Y-9998D01*
Y-6000D01*
X326502Y-5000D01*
X324503D01*
X323503Y-6000D01*
X321504Y-7999D02*
X317505D01*
X315506Y-10998D02*
Y-5000D01*
X312507D01*
X311507Y-6000D01*
Y-9998D01*
X312507Y-10998D01*
X315506D01*
X305509Y-9998D02*
X306509Y-10998D01*
X308508D01*
X309508Y-9998D01*
Y-6000D01*
X308508Y-5000D01*
X306509D01*
X305509Y-6000D01*
D44*
X273255Y32806D02*
G03*
X273255Y32806I-492J0D01*
G01*
X317425Y133129D02*
G03*
X317425Y133129I-492J0D01*
G01*
X313464Y-21138D02*
G03*
X313464Y-21138I-492J0D01*
G01*
X105425Y133129D02*
G03*
X105425Y133129I-492J0D01*
G01*
D45*
X330952Y24995D02*
G03*
X332952Y24995I1000J0D01*
G01*
X330952D02*
G03*
X328952Y24995I-1000J0D01*
G01*
X330452Y55995D02*
G03*
X328452Y55995I-1000J0D01*
G01*
X330452D02*
G03*
X332452Y55995I1000J0D01*
G01*
D46*
X232752Y32806D02*
Y59184D01*
Y32806D02*
X267251D01*
X232752Y59184D02*
X267251D01*
Y32806D02*
Y59184D01*
X-9548Y84695D02*
Y91295D01*
Y84695D02*
X-8967Y84115D01*
X-3689D01*
X-9548Y91295D02*
X-8948Y91895D01*
X-3630D01*
X322858Y128295D02*
Y156791D01*
X325889Y151633D02*
Y157184D01*
X324393Y153129D02*
X325889Y151633D01*
X327385Y153129D01*
X204758Y128295D02*
X322858D01*
X-8948Y26895D02*
X-3630D01*
X-9548Y26295D02*
X-8948Y26895D01*
X-8967Y19115D02*
X-3689D01*
X-9548Y19695D02*
X-8967Y19115D01*
X-9548Y19695D02*
Y26295D01*
X-8948Y61895D02*
X-3630D01*
X-9548Y61295D02*
X-8948Y61895D01*
X-8967Y54115D02*
X-3689D01*
X-9548Y54695D02*
X-8967Y54115D01*
X-9548Y54695D02*
Y61295D01*
X-8948Y71895D02*
X-3630D01*
X-9548Y71295D02*
X-8948Y71895D01*
X-8967Y64115D02*
X-3689D01*
X-9548Y64695D02*
X-8967Y64115D01*
X-9548Y64695D02*
Y71295D01*
X-8948Y81895D02*
X-3630D01*
X-9548Y81295D02*
X-8948Y81895D01*
X-8967Y74115D02*
X-3689D01*
X-9548Y74695D02*
X-8967Y74115D01*
X-9548Y74695D02*
Y81295D01*
X307047Y-16305D02*
X333952D01*
X302519Y-41138D02*
X304015Y-39642D01*
X305511Y-41138D01*
X304015Y-45193D02*
Y-39642D01*
X307047Y-44800D02*
Y-16305D01*
X23452Y128295D02*
X110858D01*
X113889Y151633D02*
X115385Y153129D01*
X112393D02*
X113889Y151633D01*
Y157184D01*
X110858Y128295D02*
Y156791D01*
X160452Y100495D02*
Y120495D01*
X190452Y100495D02*
Y120495D01*
X160452Y100495D02*
X190452D01*
X160452Y120495D02*
X190452D01*
X160452D02*
X179619D01*
D47*
X163501Y122500D02*
Y123500D01*
Y123000D01*
X166500D01*
Y122500D01*
Y123500D01*
X163501Y124999D02*
X166500D01*
Y126499D01*
X166000Y126998D01*
X164001D01*
X163501Y126499D01*
Y124999D01*
X166500Y129998D02*
Y127998D01*
X164501Y129998D01*
X164001D01*
X163501Y129498D01*
Y128498D01*
X164001Y127998D01*
X174001Y122500D02*
Y123500D01*
Y123000D01*
X177000D01*
Y122500D01*
Y123500D01*
X174001Y124999D02*
X177000D01*
Y126499D01*
X176500Y126998D01*
X174501D01*
X174001Y126499D01*
Y124999D01*
X177000Y127998D02*
Y128998D01*
Y128498D01*
X174001D01*
X174501Y127998D01*
X184501Y122500D02*
Y123500D01*
Y123000D01*
X187500D01*
Y122500D01*
Y123500D01*
X184501Y124999D02*
X187500D01*
Y126499D01*
X187000Y126998D01*
X185001D01*
X184501Y126499D01*
Y124999D01*
X185001Y127998D02*
X184501Y128498D01*
Y129498D01*
X185001Y129998D01*
X187000D01*
X187500Y129498D01*
Y128498D01*
X187000Y127998D01*
X185001D01*
X5452Y88494D02*
Y85495D01*
X6952D01*
X7452Y85995D01*
Y87995D01*
X6952Y88494D01*
X5452D01*
X10451D02*
X9451Y87995D01*
X8451Y86995D01*
Y85995D01*
X8951Y85495D01*
X9951D01*
X10451Y85995D01*
Y86495D01*
X9951Y86995D01*
X8451D01*
X5452Y23494D02*
Y20495D01*
X6952D01*
X7452Y20995D01*
Y22995D01*
X6952Y23494D01*
X5452D01*
X8451Y20495D02*
X9451D01*
X8951D01*
Y23494D01*
X8451Y22995D01*
X10950D02*
X11450Y23494D01*
X12450D01*
X12950Y22995D01*
Y20995D01*
X12450Y20495D01*
X11450D01*
X10950Y20995D01*
Y22995D01*
X5452Y58494D02*
Y55495D01*
X6952D01*
X7452Y55995D01*
Y57995D01*
X6952Y58494D01*
X5452D01*
X8451Y55995D02*
X8951Y55495D01*
X9951D01*
X10451Y55995D01*
Y57995D01*
X9951Y58494D01*
X8951D01*
X8451Y57995D01*
Y57495D01*
X8951Y56995D01*
X10451D01*
X5452Y68494D02*
Y65495D01*
X6952D01*
X7452Y65995D01*
Y67995D01*
X6952Y68494D01*
X5452D01*
X8451Y67995D02*
X8951Y68494D01*
X9951D01*
X10451Y67995D01*
Y67495D01*
X9951Y66995D01*
X10451Y66495D01*
Y65995D01*
X9951Y65495D01*
X8951D01*
X8451Y65995D01*
Y66495D01*
X8951Y66995D01*
X8451Y67495D01*
Y67995D01*
X8951Y66995D02*
X9951D01*
X5452Y78494D02*
Y75495D01*
X6952D01*
X7452Y75995D01*
Y77995D01*
X6952Y78494D01*
X5452D01*
X8451D02*
X10451D01*
Y77995D01*
X8451Y75995D01*
Y75495D01*
X110952Y98494D02*
Y95495D01*
Y96495D01*
X112952Y98494D01*
X111452Y96995D01*
X112952Y95495D01*
X113951D02*
X114951D01*
X114451D01*
Y98494D01*
X113951Y97995D01*
X42952Y98994D02*
Y95995D01*
Y96995D01*
X44952Y98994D01*
X43452Y97495D01*
X44952Y95995D01*
X47951D02*
X45951D01*
X47951Y97995D01*
Y98495D01*
X47451Y98994D01*
X46451D01*
X45951Y98495D01*
X274952Y36996D02*
Y39496D01*
X274452Y39995D01*
X273453D01*
X272953Y39496D01*
Y36996D01*
X271953Y37496D02*
X271453Y36996D01*
X270454D01*
X269954Y37496D01*
Y37996D01*
X270454Y38496D01*
X270953D01*
X270454D01*
X269954Y38996D01*
Y39496D01*
X270454Y39995D01*
X271453D01*
X271953Y39496D01*
X282952Y60994D02*
Y58495D01*
X283452Y57995D01*
X284452D01*
X284951Y58495D01*
Y60994D01*
X287951Y57995D02*
X285951D01*
X287951Y59995D01*
Y60495D01*
X287451Y60994D01*
X286451D01*
X285951Y60495D01*
X279952Y7995D02*
X279452Y8494D01*
X278452D01*
X277952Y7995D01*
Y5995D01*
X278452Y5495D01*
X279452D01*
X279952Y5995D01*
X282951Y5495D02*
X280951D01*
X282951Y7495D01*
Y7995D01*
X282451Y8494D01*
X281451D01*
X280951Y7995D01*
X347052Y-11906D02*
X345052D01*
Y-13405D01*
X346052D01*
X345052D01*
Y-14905D01*
X348051D02*
X349051D01*
X348551D01*
Y-11906D01*
X348051Y-12405D01*
X188452Y154494D02*
X186452D01*
Y152995D01*
X187452D01*
X186452D01*
Y151495D01*
X191451D02*
X189451D01*
X191451Y153495D01*
Y153995D01*
X190951Y154494D01*
X189951D01*
X189451Y153995D01*
X27952Y85495D02*
Y88494D01*
X29452D01*
X29952Y87995D01*
Y86995D01*
X29452Y86495D01*
X27952D01*
X28952D02*
X29952Y85495D01*
X30951D02*
X31951D01*
X31451D01*
Y88494D01*
X30951Y87995D01*
X33450D02*
X33950Y88494D01*
X34950D01*
X35450Y87995D01*
Y87495D01*
X34950Y86995D01*
X34450D01*
X34950D01*
X35450Y86495D01*
Y85995D01*
X34950Y85495D01*
X33950D01*
X33450Y85995D01*
X27952Y75495D02*
Y78494D01*
X29452D01*
X29952Y77995D01*
Y76995D01*
X29452Y76495D01*
X27952D01*
X28952D02*
X29952Y75495D01*
X30951D02*
X31951D01*
X31451D01*
Y78494D01*
X30951Y77995D01*
X34950Y75495D02*
Y78494D01*
X33450Y76995D01*
X35450D01*
X27952Y65495D02*
Y68494D01*
X29452D01*
X29952Y67995D01*
Y66995D01*
X29452Y66495D01*
X27952D01*
X28952D02*
X29952Y65495D01*
X30951D02*
X31951D01*
X31451D01*
Y68494D01*
X30951Y67995D01*
X35450Y68494D02*
X33450D01*
Y66995D01*
X34450Y67495D01*
X34950D01*
X35450Y66995D01*
Y65995D01*
X34950Y65495D01*
X33950D01*
X33450Y65995D01*
X27952Y55495D02*
Y58494D01*
X29452D01*
X29952Y57995D01*
Y56995D01*
X29452Y56495D01*
X27952D01*
X28952D02*
X29952Y55495D01*
X30951D02*
X31951D01*
X31451D01*
Y58494D01*
X30951Y57995D01*
X35450Y58494D02*
X34450Y57995D01*
X33450Y56995D01*
Y55995D01*
X33950Y55495D01*
X34950D01*
X35450Y55995D01*
Y56495D01*
X34950Y56995D01*
X33450D01*
X28452Y20995D02*
Y23994D01*
X29952D01*
X30452Y23495D01*
Y22495D01*
X29952Y21995D01*
X28452D01*
X29452D02*
X30452Y20995D01*
X31451D02*
X32451D01*
X31951D01*
Y23994D01*
X31451Y23495D01*
X33950Y23994D02*
X35950D01*
Y23495D01*
X33950Y21495D01*
Y20995D01*
X45952Y-25006D02*
Y-27505D01*
X46452Y-28005D01*
X47452D01*
X47951Y-27505D01*
Y-25006D01*
X50951D02*
X48951D01*
Y-26505D01*
X49951Y-26005D01*
X50451D01*
X50951Y-26505D01*
Y-27505D01*
X50451Y-28005D01*
X49451D01*
X48951Y-27505D01*
X326452Y21494D02*
Y18495D01*
X327952D01*
X328451Y18995D01*
Y20995D01*
X327952Y21494D01*
X326452D01*
X329451Y18495D02*
X330451D01*
X329951D01*
Y21494D01*
X329451Y20995D01*
X199500Y114000D02*
X196501D01*
Y115499D01*
X197001Y115999D01*
X198001D01*
X198500Y115499D01*
Y114000D01*
X199500Y116999D02*
Y117999D01*
Y117499D01*
X196501D01*
X197001Y116999D01*
X193120Y107495D02*
X195452D01*
X193120Y105163D01*
Y104580D01*
X193703Y103997D01*
X194869D01*
X195452Y104580D01*
X193452Y117495D02*
X192286D01*
X192869D01*
Y113997D01*
X193452Y114580D01*
D48*
X-27048Y23411D02*
X-26465Y23994D01*
X-25298D01*
X-24715Y23411D01*
Y22828D01*
X-25298Y22245D01*
X-25881D01*
X-25298D01*
X-24715Y21662D01*
Y21079D01*
X-25298Y20495D01*
X-26465D01*
X-27048Y21079D01*
X-23549Y20495D02*
Y21079D01*
X-22966D01*
Y20495D01*
X-23549D01*
X-20633Y23411D02*
X-20050Y23994D01*
X-18884D01*
X-18301Y23411D01*
Y22828D01*
X-18884Y22245D01*
X-19467D01*
X-18884D01*
X-18301Y21662D01*
Y21079D01*
X-18884Y20495D01*
X-20050D01*
X-20633Y21079D01*
X-17134Y23994D02*
Y21662D01*
X-15968Y20495D01*
X-14802Y21662D01*
Y23994D01*
X-27048Y58994D02*
Y55495D01*
X-24715D01*
X-21800D02*
X-22966D01*
X-23549Y56078D01*
Y57245D01*
X-22966Y57828D01*
X-21800D01*
X-21216Y57245D01*
Y56662D01*
X-23549D01*
X-17718Y58994D02*
Y55495D01*
X-19467D01*
X-20050Y56078D01*
Y57245D01*
X-19467Y57828D01*
X-17718D01*
X-16551Y58411D02*
X-15968Y58994D01*
X-14802D01*
X-14219Y58411D01*
Y57828D01*
X-14802Y57245D01*
X-15385D01*
X-14802D01*
X-14219Y56662D01*
Y56078D01*
X-14802Y55495D01*
X-15968D01*
X-16551Y56078D01*
X-27048Y68994D02*
X-24715D01*
X-25881D01*
Y65495D01*
X-23549Y68994D02*
X-21216Y65495D01*
Y68994D02*
X-23549Y65495D01*
X-27048Y75495D02*
Y78994D01*
X-25298D01*
X-24715Y78411D01*
Y77245D01*
X-25298Y76662D01*
X-27048D01*
X-25881D02*
X-24715Y75495D01*
X-23549Y78994D02*
X-21216Y75495D01*
Y78994D02*
X-23549Y75495D01*
X-24715Y88994D02*
X-27048D01*
Y85495D01*
X-24715D01*
X-27048Y87245D02*
X-25881D01*
X-23549Y87828D02*
Y85495D01*
Y86662D01*
X-22966Y87245D01*
X-22383Y87828D01*
X-21800D01*
X-20050D02*
Y85495D01*
Y86662D01*
X-19467Y87245D01*
X-18884Y87828D01*
X-18301D01*
X-15968Y85495D02*
X-14802D01*
X-14219Y86079D01*
Y87245D01*
X-14802Y87828D01*
X-15968D01*
X-16551Y87245D01*
Y86079D01*
X-15968Y85495D01*
X-13052Y87828D02*
Y85495D01*
Y86662D01*
X-12469Y87245D01*
X-11886Y87828D01*
X-11303D01*
M02*
