M48
;Layer_Color=9474304
;FILE_FORMAT=2:5
INCH,LZ
;TYPE=PLATED
T1F00S00C0.02800
T2F00S00C0.03200
T3F00S00C0.03500
T4F00S00C0.03543
T5F00S00C0.04500
T6F00S00C0.04921
T7F00S00C0.13500
%
T01
X0023Y00155
X0042752Y0022995
X0063252Y-0005805
X0074852Y-0006405
X0082752Y-0034605
X0111052Y-0001805
X0136052Y0008695
X0087752Y0047095
X0167952Y0066195
X0137952Y0123795
X01225Y01505
X0108952Y0106495
X0072952Y0100595
T02
X024Y0039393
T03
X0177952Y-0042005
Y0037995
X0272952Y0035995
Y0025995
Y0045995
Y0055995
X0162952Y0055495
X0167952Y0037995
X0157952
X0147952
X0137952
X0127952
X0117952
X0107952
X0097952
X0087952
X0077952
X0067952
X0057952
X0042952Y0055995
Y0085995
X0062952
X0092952
X0112952Y0085495
X0132952
X0162952
X0112952Y0055495
X0092952Y0055995
X0097952Y-0042005
X0107952
X0117952
X0127952
X0137952
X0147952
X0157952
X0167952
X0087952
X0077952
X0067952
X0057952
T04
X0165452Y0105495
Y0115495
X0175452
X0185452
Y0105495
X0175452
T05
X0288952Y-0027005
Y-0007005
T06
X0327952Y-0032005
X0312952
X0104952Y0143995
X0089952
X0074952
X0059952
X0044952
X0029952
X0211952
X0226952
X0241952
X0256952
X0271952
X0286952
X0301952
X0316952
T07
X0373775Y0
X0
Y0110205
X0373775
M30
